<svg xmlns="http://www.w3.org/2000/svg" width="57" height="32" viewBox="0 0 57 32">
  <g id="Group_36" data-name="Group 36" transform="translate(-33 -18)">
    <g id="Group_3" data-name="Group 3" transform="translate(-50.339 -155.567)">
      <path id="Path_4" data-name="Path 4" d="M103.01,190.078a6.962,6.962,0,0,1-5.5-2.713,6.944,6.944,0,0,1-12.45-4.236V177.4h2.891v5.726a4.057,4.057,0,1,0,8.113,0V177.4h2.891v5.726a4.057,4.057,0,1,0,8.113,0V177.4h2.891v5.726A6.956,6.956,0,0,1,103.01,190.078Z" transform="translate(0 -1.328)" fill="#fff"/>
      <path id="Path_5" data-name="Path 5" d="M107.559,177.9v5.5a4.28,4.28,0,0,1-8.559,0v-5.5H96.554v5.5a4.28,4.28,0,0,1-8.559,0v-5.5H85.549v5.5a6.722,6.722,0,0,0,12.228,3.859A6.722,6.722,0,0,0,110,183.4v-5.5Z" transform="translate(-0.269 -1.597)" fill="#fff"/>
      <path id="Path_6" data-name="Path 6" d="M107.067,222.191v-5.726a4.057,4.057,0,0,0-8.113,0v5.726H96.062v-5.726a4.057,4.057,0,0,0-8.113,0v5.726H85.057v-5.726a6.944,6.944,0,0,1,12.45-4.235,6.944,6.944,0,0,1,12.451,4.235v5.726Z" transform="translate(0 -18.89)" fill="#fff"/>
      <path id="Path_7" data-name="Path 7" d="M103.279,210.01a6.72,6.72,0,0,0-5.5,2.866,6.722,6.722,0,0,0-12.228,3.86v5.5h2.445v-5.5a4.28,4.28,0,1,1,8.559,0v5.5H99v-5.5a4.28,4.28,0,1,1,8.559,0v5.5H110v-5.5A6.733,6.733,0,0,0,103.279,210.01Z" transform="translate(-0.269 -19.16)" fill="#fff"/>
      <path id="Path_8" data-name="Path 8" d="M166.156,204.157a6.962,6.962,0,0,1-5.5-2.713,6.944,6.944,0,0,1-12.45-4.235v-5.726h2.892v5.726a4.056,4.056,0,0,0,8.113,0V184.471h-8.113v3.179H148.2v-5.726a6.944,6.944,0,0,1,12.45-4.235,6.944,6.944,0,0,1,12.451,4.235v5.726h-2.892v-5.726a4.057,4.057,0,0,0-8.113,0v15.285a4.057,4.057,0,0,0,8.113,0v-5.726H173.1v5.726A6.956,6.956,0,0,1,166.156,204.157Zm-6.968-22.578a4.052,4.052,0,0,0-8.075,0Z" transform="translate(-34.534 0)" fill="#fff"/>
      <path id="Path_9" data-name="Path 9" d="M173.15,187.7v-5.5a6.722,6.722,0,0,0-12.228-3.859,6.722,6.722,0,0,0-12.227,3.859v5.5h2.445v-3.179H159.7v12.961a4.28,4.28,0,0,1-8.559,0v-5.5H148.7v5.5a6.722,6.722,0,0,0,12.227,3.86,6.722,6.722,0,0,0,12.228-3.86v-5.5H170.7v5.5a4.28,4.28,0,0,1-8.559,0V182.193a4.28,4.28,0,0,1,8.559,0v5.5Zm-17.73-9.782a4.282,4.282,0,0,1,4.273,4.157h-8.547A4.281,4.281,0,0,1,155.42,177.914Z" transform="translate(-34.803 -0.269)" fill="#fff"/>
    </g>
    <rect id="Rectangle_26" data-name="Rectangle 26" width="57" height="32" transform="translate(33 18)" fill="none"/>
  </g>
</svg>
